<svg width="90" height="89" viewBox="0 0 90 89" fill="none" xmlns="http://www.w3.org/2000/svg"><path d="M88.444 18.084a1.653 1.653 0 0 0-1.99-.306l-17.708 10.19-24.541-13.847a.37.37 0 0 0-.035-.017L37.294.868a1.604 1.604 0 0 0-.963-.8A1.625 1.625 0 0 0 35.084.2L1.841 18.494a1.625 1.625 0 0 0-.632 2.217l7.857 13.815a.552.552 0 0 0 .047.083V65.54h-.31l.114.655c.063.353.26 1.205.752 1.501L42.59 87.713c.232.139.504.287.834.287.208 0 .519-.02.828-.2l33.59-20.107c.337-.2.54-.654.654-1.034h.505V34.706l9.78-14.612c.444-.66.15-1.487-.338-2.01zm-47.423-3.037L11.28 32.069 4.818 20.545 35.188 3.83l5.833 11.216zm34.747 22.165v28.385l-30.629 18v-28.38l30.63-18.005zm-22.727-.193a1.537 1.537 0 0 0-.556.55l-5.198 8.366-2.15-1.43v-26.2l20.398 11.537L53.04 37.02zm-3.93 12.02l5.862-9.413 26.972-15.52-6.258 9.18L49.112 49.04zm-3.591-.35l-2.08 3.337-3.788-2.248 3.81-2.439 2.058 1.35zm-3.611 6.516v28.357L12.337 65.611V37.249L41.91 55.205zM13.792 34.403L41.91 18.322v26.232l-5.322 3.377-22.795-13.528z" fill="#3E6E00" stroke="#4A7710" stroke-miterlimit="10"/></svg>