<svg width="26" height="20" viewBox="0 0 26 20" fill="none" xmlns="http://www.w3.org/2000/svg"><path d="M24.963 4.186s-.26-1.889-.996-2.719C23.017.37 21.933.37 21.457.324 17.952.061 12.672.016 12.672.016s-1.319.01-3.079.055C7.833.115 5.637.19 3.886.324c-.475.045-1.559.09-2.51 1.138-.78.835-.995 2.724-.995 2.724S.121 6.423.121 8.66v2.063c0 2.237.26 4.434.26 4.434s.26 1.888.995 2.718c.951 1.099 2.207 1.054 2.77 1.183 1.99.219 8.526.264 8.526.264s5.28 0 8.785-.309c.476-.044 1.56-.089 2.51-1.143.736-.835.996-2.718.996-2.718s.26-2.237.26-4.434V8.654c0-2.231-.26-4.468-.26-4.468zM9.643 14.758V5.24l8.22 4.87-8.22 4.648z" fill="#D8362A"/></svg>