<svg width="12" height="22" viewBox="0 0 12 22" fill="none" xmlns="http://www.w3.org/2000/svg"><path fill-rule="evenodd" clip-rule="evenodd" d="M9.04 4.11c.673-.022 1.346-.003 2.02-.006h.277V.637c-.36-.035-.735-.087-1.111-.104-.69-.03-1.381-.065-2.071-.049C7.1.506 6.102.76 5.23 1.38c-1 .712-1.548 1.712-1.757 2.894-.085.488-.108.992-.121 1.488-.02.779-.005 1.556-.003 2.336v.292H0v3.873h3.328V22h4.068v-9.721h3.32c.17-1.288.334-2.563.51-3.892h-.746c-.944.004-3.109 0-3.109 0s.01-1.92.032-2.753c.032-1.143.715-1.49 1.637-1.523z" fill="#3E3F46"/></svg>