<svg width="22" height="22" viewBox="0 0 22 22" fill="none" xmlns="http://www.w3.org/2000/svg"><path d="M10.991 0h-.004C5.172 0 .445 4.784.445 10.668c0 2.334.74 4.497 2.005 6.251l-1.314 3.963L5.19 19.57a10.347 10.347 0 0 0 5.802 1.767c5.81 0 10.538-4.784 10.538-10.669C21.53 4.784 16.802 0 10.991 0zm6.132 15.065c-.255.725-1.264 1.33-2.067 1.504-.552.117-1.269.213-3.694-.804-3.097-1.3-5.094-4.484-5.25-4.692-.15-.209-1.253-1.688-1.253-3.218 0-1.529.77-2.275 1.08-2.596.255-.262.675-.383 1.078-.383.132 0 .247.008.354.012.31.013.466.034.672.525.255.621.873 2.15.947 2.31.074.157.148.37.045.578-.099.213-.185.309-.342.488-.156.18-.305.32-.457.517-.144.17-.305.35-.123.662.18.309.798 1.33 1.709 2.15 1.177 1.06 2.129 1.4 2.47 1.543.256.108.556.083.742-.117.234-.258.527-.684.823-1.104.21-.3.478-.338.758-.234.284.1 1.792.854 2.1 1.009.31.158.515.233.59.362.073.142.073.759-.182 1.488z" fill="#3E3F46"/></svg>