<svg width="20" height="22" viewBox="0 0 20 22" fill="none" xmlns="http://www.w3.org/2000/svg"><path d="M11.947 0H7.708C3.618 0 .291 3.35.291 7.468v3.2a7.48 7.48 0 0 0 4.238 6.752v3.563c0 .308.385.47.605.25l3.075-3.097h3.742c4.089 0 7.417-3.35 7.417-7.468v-3.2C19.368 3.35 16.04 0 11.947 0zm-1.412 5.334a2.65 2.65 0 0 0-.314.017.354.354 0 0 1-.08-.704c.13-.013.262-.021.394-.021 1.95 0 3.53 1.596 3.53 3.554 0 .134-.008.263-.02.396a.353.353 0 0 1-.389.313.358.358 0 0 1-.31-.392 2.71 2.71 0 0 0 .016-.317c0-1.57-1.27-2.846-2.827-2.846zm2.12 2.846a.355.355 0 0 1-.352.355.358.358 0 0 1-.352-.355c0-.783-.634-1.42-1.412-1.42a.353.353 0 0 1-.352-.355c0-.196.158-.354.352-.354a2.12 2.12 0 0 1 2.115 2.13zm2.503 5.218a2.486 2.486 0 0 1-.662 1.209c-.451.454-1.064.687-1.796.687-.195 0-.402-.017-.613-.05-1.688-.267-4.04-1.1-5.57-2.638l-.022-.02c-1.527-1.543-2.355-3.91-2.62-5.61-.157-1.013.063-1.854.634-2.43a2.46 2.46 0 0 1 1.2-.666.321.321 0 0 1 .14-.004l1.723.32c.14.026.252.138.281.28l.5 2.513a.353.353 0 0 1-.094.32l-1.01 1.017c.836 1.796 1.784 2.755 3.493 3.526l1.014-1.021a.347.347 0 0 1 .319-.096l2.5.504c.14.03.252.142.277.284l.319 1.733c0 .046 0 .096-.013.142zm.19-4.067a.362.362 0 0 1-.438.262.356.356 0 0 1-.248-.425c.074-.32.111-.65.111-.983 0-2.355-1.9-4.268-4.238-4.268-.107 0-.22.004-.327.013a.357.357 0 0 1-.054-.713c.124-.008.253-.012.381-.012 2.728 0 4.946 2.233 4.946 4.98a5.1 5.1 0 0 1-.132 1.146z" fill="#3E3F46"/></svg>