<svg width="19" height="16" viewBox="0 0 19 16" fill="none" xmlns="http://www.w3.org/2000/svg"><path d="M9.5 16c-.27 0-.531-.093-.735-.261a216.917 216.917 0 0 0-2.16-1.76l-.003-.002c-1.914-1.544-3.567-2.877-4.718-4.19C.6 8.316 0 6.925 0 5.404c0-1.478.535-2.841 1.507-3.84C2.491.557 3.84 0 5.307 0 6.406 0 7.41.328 8.294.975c.446.327.85.727 1.207 1.193.356-.466.76-.866 1.207-1.193A4.954 4.954 0 0 1 13.692 0c1.468 0 2.817.556 3.8 1.566C18.466 2.564 19 3.927 19 5.405c0 1.52-.599 2.913-1.884 4.381-1.15 1.314-2.803 2.647-4.717 4.19-.654.528-1.395 1.126-2.165 1.763A1.153 1.153 0 0 1 9.5 16zM5.308 1.053c-1.153 0-2.212.436-2.983 1.227-.781.803-1.212 1.912-1.212 3.125 0 1.279.502 2.423 1.628 3.71 1.089 1.242 2.708 2.548 4.582 4.06l.004.003c.655.529 1.398 1.128 2.171 1.768.778-.641 1.522-1.241 2.179-1.77 1.874-1.513 3.493-2.819 4.582-4.062 1.126-1.286 1.628-2.43 1.628-3.71 0-1.212-.43-2.321-1.212-3.124-.77-.791-1.83-1.227-2.983-1.227-.844 0-1.62.255-2.304.756-.61.446-1.035 1.011-1.284 1.406a.706.706 0 0 1-.604.325.706.706 0 0 1-.603-.325c-.25-.395-.675-.96-1.285-1.406a3.826 3.826 0 0 0-2.304-.756z" fill="#585858"/></svg>