<svg width="130" height="72" viewBox="0 0 130 72" fill="none" xmlns="http://www.w3.org/2000/svg"><path d="M129.998 33.401c0-6.904-1.918-12.69-5.545-16.73-3.381-3.753-8.198-5.821-13.564-5.821H96.336V2.32c0-1.278-1.016-2.32-2.263-2.32h-64.68c-1.247 0-2.263 1.042-2.263 2.32v12.57H13.55c-1.246 0-2.263 1.04-2.263 2.319 0 1.28 1.017 2.32 2.264 2.32h15.764c1.328 0 2.369-1.018 2.369-2.32V4.639h60.155V58.7H60.36c-.073 0-.173 0-.205.008l-.798.17-.308-.775c-1.533-3.874-5.14-6.378-9.19-6.378-4.076 0-7.682 2.521-9.19 6.423l-.307.793-.813-.185a2.19 2.19 0 0 0-.49-.06h-7.38V46.1c0-1.279-1.013-2.32-2.259-2.32H13.55c-1.247 0-2.264 1.041-2.264 2.32s1.017 2.319 2.264 2.319h13.58v12.57c0 1.278 1.016 2.32 2.263 2.32H40.03l.169.786c.99 4.58 5.05 7.905 9.659 7.905 4.65 0 8.622-3.253 9.657-7.911l.173-.778h40.371l.175.778c1.024 4.583 5.083 7.911 9.657 7.911 4.651 0 8.622-3.253 9.657-7.911l.173-.778h8.016c1.247 0 2.263-1.042 2.263-2.32V33.4h-.002zM49.86 67.39c-2.967 0-5.38-2.475-5.38-5.514s2.413-5.512 5.38-5.512c2.962 0 5.372 2.473 5.372 5.512 0 3.04-2.41 5.514-5.373 5.514zm60.031 0c-2.962 0-5.372-2.475-5.372-5.514s2.41-5.512 5.372-5.512c2.964 0 5.376 2.473 5.376 5.512-.032 3.043-2.443 5.514-5.376 5.514zm15.582-8.69h-6.169l-.248-.624c-1.512-3.797-5.196-6.349-9.165-6.349-4.042 0-7.639 2.492-9.163 6.348l-.248.625h-4.115V15.49h14.554c9.114 0 14.554 6.705 14.554 17.938V58.7z" fill="#3E6E00"/><path d="M56.94 42.53c.618 0 1.2-.238 1.636-.663l8.43-8.649.385-.713a.98.98 0 0 1 .07-.194l.102-.595c-.006-.071-.006-.173-.017-.28l-.12-.24.058-.096-.25-.784-.201-.289a.447.447 0 0 1-.055-.077.74.74 0 0 1-.172-.198l-7.841-8.012a2.253 2.253 0 0 0-1.604-.654c-.613 0-1.197.238-1.603.654a2.344 2.344 0 0 0-.667 1.645c0 .618.237 1.202.667 1.643l4.069 4.173H2.264C1.016 29.2 0 30.243 0 31.52c0 1.28 1.016 2.32 2.264 2.32h57.428l-4.323 4.729c-.896.922-.903 2.407-.02 3.312.404.41.984.647 1.59.647z" fill="#3E6E00"/></svg>