<svg width="86" height="88" viewBox="0 0 86 88" fill="none" xmlns="http://www.w3.org/2000/svg"><path clip-rule="evenodd" d="M17.867 71c0 .975-.013 1.794.002 2.613.062 3.493.13 6.986.2 10.479.009.451.03.903.069 1.352.008.1.092.242.177.275.09.036.26.003.33-.066.742-.724 1.485-1.447 2.2-2.197 1.047-1.098 2.063-2.227 3.109-3.328 1.194-1.257 2.406-2.498 3.611-3.746 1.992-2.064 3.99-4.12 5.971-6.193 1.042-1.091 2.05-2.214 3.077-3.318.7-.753 1.393-1.515 2.12-2.242.359-.36.316-.585-.015-.959a53.65 53.65 0 0 1-2.447-2.994c-.471-.617-.677-.687-1.439-.478-1.702.465-3.364 1.11-5.196.983-2.737-.19-5.057-1.16-6.808-3.316-1.07-1.316-1.883-2.745-2.12-4.458-.044-.325-.257-.628-.391-.941-.268.18-.576.32-.795.545-1.607 1.65-3.197 3.316-4.79 4.979a755.608 755.608 0 0 0-3.387 3.55c-1.836 1.94-3.663 3.89-5.501 5.827-.85.896-1.73 1.764-2.571 2.668-.152.163-.185.437-.273.66.217.058.433.165.651.168 3.396.054 6.79.099 10.187.135 1.3.014 2.6.002 4.029.002zm43.077-57.704c0 .961-.027 1.924.007 2.884.048 1.366.672 2.457 1.93 3.006 1.358.593 2.795 1.005 4.192 1.512.746.27 1.494.546 2.218.87.936.42 1.013 1.77.627 2.403-.518.847-1.124 1.643-1.708 2.45-.664.918-1.4 1.79-2.008 2.744-1.022 1.604-.704 3.26.577 4.916.998 1.29 1.912 2.65 2.784 4.027.693 1.095.01 2.49-1.251 2.873-1.64.497-3.245 1.113-4.892 1.582-1.311.374-2.224 1.117-2.676 2.376-.154.429-.215.908-.226 1.367-.038 1.628-.011 3.257-.065 4.884-.016.514-.109 1.073-.342 1.522-.445.86-1.453 1.14-2.442.827-1.156-.365-2.32-.707-3.477-1.064-.652-.202-1.317-.374-1.946-.63-1.152-.47-2.118-.036-3.017.589-1.153.8-1.81 2.035-2.632 3.126-.64.85-1.25 1.737-1.988 2.497-.847.87-2.143.594-2.835-.373-.989-1.38-1.964-2.775-3.017-4.107-.89-1.127-2.033-1.968-3.567-1.795-.834.094-1.636.47-2.453.715-1.436.43-2.867.878-4.312 1.277-1.072.297-2.117-.795-2.108-1.952.016-1.844.004-3.689-.041-5.532-.04-1.629-1.295-3.173-2.895-3.563-.974-.238-1.891-.698-2.85-1.012-.758-.25-1.539-.434-2.312-.64-.876-.232-1.596-.914-1.584-1.8.007-.522.316-1.092.627-1.547 1.164-1.703 2.476-3.314 3.549-5.069.589-.963.562-2.146-.144-3.155-1.263-1.803-2.559-3.582-3.83-5.378-.836-1.184-.419-2.599.993-3.053 1.779-.573 3.557-1.15 5.34-1.71 1.128-.356 1.983-1.061 2.507-2.083.243-.474.314-1.075.323-1.62.03-1.982-.022-3.964.006-5.946.015-1.031.575-1.71 1.474-1.924.276-.065.604-.089.868-.006 1.259.394 2.498.845 3.754 1.249 1.036.332 2.068.753 3.134.901 1.029.144 2.007-.32 2.705-1.09.854-.945 1.618-1.971 2.395-2.982.606-.788 1.125-1.646 1.769-2.4.79-.925 1.66-.979 2.551-.25.956.782 1.482 1.866 2.217 2.8.991 1.262 1.67 2.807 3.164 3.605.687.367 1.445.634 2.298.339 1.507-.522 3.038-.979 4.562-1.451a18.44 18.44 0 0 1 1.425-.377c1.646-.372 2.515.433 2.58 2.078.041 1.028.008 2.06.008 3.09h.034zM68.133 71c0 .975.013 1.794-.002 2.613-.061 3.493-.13 6.986-.2 10.479-.009.451-.03.903-.069 1.352-.008.1-.092.242-.177.275a.378.378 0 0 1-.33-.066c-.742-.724-1.485-1.447-2.2-2.197-1.047-1.098-2.063-2.227-3.109-3.328-1.194-1.257-2.406-2.498-3.611-3.746-1.992-2.064-3.99-4.12-5.971-6.193-1.042-1.091-2.05-2.214-3.076-3.318-.701-.753-1.394-1.515-2.12-2.242-.36-.36-.316-.585.014-.959a53.694 53.694 0 0 0 2.448-2.994c.47-.617.676-.687 1.438-.478 1.703.465 3.364 1.11 5.196.983 2.737-.19 5.057-1.16 6.808-3.316 1.07-1.316 1.884-2.745 2.12-4.458.044-.325.257-.628.391-.941.268.18.576.32.795.545 1.607 1.65 3.197 3.316 4.79 4.979a755.608 755.608 0 0 1 3.387 3.55c1.837 1.94 3.663 3.89 5.501 5.827.85.896 1.73 1.764 2.57 2.668.153.163.186.437.274.66-.217.058-.433.165-.651.168-3.395.054-6.79.099-10.187.135-1.3.014-2.6.002-4.029.002z" stroke="#3E6E00" stroke-width="4" stroke-miterlimit="10"/></svg>